<?xml version="1.0" encoding="UTF-8" standalone="no"?>
<!-- Generator: Adobe Illustrator 16.0.0, SVG Export Plug-In . SVG Version: 6.00 Build 0)  -->

<svg
   xmlns:ns="&amp;ns_sfw;"
   xmlns:dc="http://purl.org/dc/elements/1.1/"
   xmlns:cc="http://creativecommons.org/ns#"
   xmlns:rdf="http://www.w3.org/1999/02/22-rdf-syntax-ns#"
   xmlns:svg="http://www.w3.org/2000/svg"
   xmlns="http://www.w3.org/2000/svg"
   xmlns:sodipodi="http://sodipodi.sourceforge.net/DTD/sodipodi-0.dtd"
   xmlns:inkscape="http://www.inkscape.org/namespaces/inkscape"
   version="1.1"
   id="Layer_1"
   x="0px"
   y="0px"
   width="484.38312"
   height="489.14401"
   viewBox="0 0 484.38312 489.14401"
   enable-background="new 0 0 612 657"
   xml:space="preserve"
   sodipodi:docname="cei_2014.svg"
   inkscape:version="0.92.3 (unknown)"><defs
   id="defs3991">
	
	
	
	
	
	
	
	
	
	
</defs><sodipodi:namedview
   pagecolor="#ffffff"
   bordercolor="#666666"
   borderopacity="1"
   objecttolerance="10"
   gridtolerance="10"
   guidetolerance="10"
   inkscape:pageopacity="0"
   inkscape:pageshadow="2"
   inkscape:window-width="1855"
   inkscape:window-height="1056"
   id="namedview3989"
   showgrid="false"
   fit-margin-top="0"
   fit-margin-left="0"
   fit-margin-right="0"
   fit-margin-bottom="0"
   inkscape:zoom="1.391172"
   inkscape:cx="203.11733"
   inkscape:cy="209.0793"
   inkscape:window-x="1505"
   inkscape:window-y="24"
   inkscape:window-maximized="1"
   inkscape:current-layer="Layer_1" />
<metadata
   id="metadata3880">
	<ns:sfw>
		<ns:slices />
		<ns:sliceSourceBounds
   width="549.391"
   height="577.978"
   y="9.484"
   x="127.375"
   bottomLeftOrigin="true" />
	</ns:sfw>
<rdf:RDF><cc:Work
     rdf:about=""><dc:format>image/svg+xml</dc:format><dc:type
       rdf:resource="http://purl.org/dc/dcmitype/StillImage" /><dc:title></dc:title></cc:Work></rdf:RDF></metadata>
<rect
   style="fill:#3cbeb2"
   id="rect3882"
   height="482.211"
   width="450.07501"
   y="0"
   x="10.701333" /><path
   style="opacity:0.8;fill:#df1f26"
   inkscape:connector-curvature="0"
   id="path3884"
   d="m 217.56533,202.948 c 0,0 -161.037997,-33.583 -195.619997,0 -49.377,47.957 0,271.268 0,271.268 0,0 161.036997,33.588 195.619997,0 49.373,-47.954 0,-271.268 0,-271.268 z"
   enable-background="new    " /><path
   style="opacity:0.9;fill:#f15f2b"
   inkscape:connector-curvature="0"
   id="path3886"
   d="m 383.73733,276.278 c 0,0 -140.219,-29.239 -170.328,0 -36.014,34.971 0,197.85 0,197.85 0,0 140.218,29.242 170.328,0 36.005,-34.974 0,-197.85 0,-197.85 z"
   enable-background="new    " /><path
   style="opacity:0.8;fill:#f9a23d"
   inkscape:connector-curvature="0"
   id="path3888"
   d="m 469.14533,280.738 c -13.063,-13.027 -73.902,0 -73.902,0 0,0 -34.288,159.194 0,193.377 13.066,13.026 73.902,0 73.902,0 0,0 34.285,-159.196 0,-193.377 z"
   enable-background="new    " /><g
   id="g3930"
   transform="translate(-102.88267,-47.849998)">
		<path
   style="fill:#ffffff"
   inkscape:connector-curvature="0"
   id="path3916"
   d="m 165.885,389.204 c 0,58.068 16.622,102.609 70.411,102.609 25.182,0 47.281,-8.557 62.184,-19.007 l 14.393,36.999 c -16.452,13.534 -50.024,20.557 -80.347,20.557 -83.259,0 -119.232,-58.076 -119.232,-142.191 0,-82.735 37.011,-143.888 119.749,-143.888 29.809,0 60.123,5.651 77.941,17.984 l -13.695,37.521 c -15.25,-9.938 -35.807,-16.963 -60.989,-16.963 -56.362,0 -70.415,48.822 -70.415,106.379 z" />
		<path
   style="fill:#ffffff"
   inkscape:connector-curvature="0"
   id="path3918"
   d="m 455.856,479.219 11.127,33.205 c -17.195,10.283 -39.966,18.22 -66.27,18.22 -62.553,0 -98.635,-37.438 -98.635,-99.83 0,-63.396 30.181,-109.087 93.24,-109.087 53.785,0 81.268,35.415 81.268,89.372 0,8.599 -0.161,16.859 -0.502,24.954 H 352.493 c 0.336,37.253 16.527,60.697 52.102,60.697 22.929,-0.005 37.255,-6.91 51.261,-17.531 z M 396.5,355.28 c -30.187,1.006 -42.826,25.123 -44.177,54.972 h 83.291 v -2.369 C 435.616,377.022 424.663,355.79 396.5,355.28 Z" />
		<path
   style="fill:#ffffff"
   inkscape:connector-curvature="0"
   id="path3920"
   d="m 493.434,264.641 c 0,-15.958 11.644,-28.187 27.664,-28.187 16.019,0 27.826,12.055 27.826,28.187 0,16.132 -11.981,28.192 -27.826,28.192 -16.359,-0.004 -27.664,-11.72 -27.664,-28.192 z m 3.039,66.729 h 48.733 v 201.223 h -48.733 z" />
		<path
   style="fill:#ffffff"
   inkscape:connector-curvature="0"
   id="path3922"
   d="m 451.508,171.585 c 12.272,0 22.226,9.837 22.226,21.964 0,12.132 -9.951,21.967 -22.226,21.967 -12.271,0 -22.224,-9.835 -22.224,-21.967 0.002,-12.127 9.953,-21.964 22.224,-21.964 z" />
		<ellipse
   style="fill:#ffffff"
   id="ellipse3924"
   ry="15.766"
   rx="15.619"
   cy="169.757"
   cx="358.952" />
		<ellipse
   style="fill:#ffffff"
   id="ellipse3926"
   ry="9.5419998"
   rx="9.4799995"
   cy="159.27499"
   cx="263.79099" />
		<path
   style="fill:#ffffff"
   inkscape:connector-curvature="0"
   id="path3928"
   d="m 168.609,165.401 c 1.731,0 3.138,1.48 3.138,3.312 0,1.83 -1.406,3.31 -3.138,3.31 -1.738,0 -3.141,-1.48 -3.141,-3.31 0,-1.831 1.403,-3.312 3.141,-3.312 z" />
	</g>
</svg>